<svg width="90" height="90" viewBox="0 0 90 90" fill="none" xmlns="http://www.w3.org/2000/svg">
<path fill-rule="evenodd" clip-rule="evenodd" d="M63 54V9C63 4.032 58.968 0 54 0H9C4.032 0 0 4.032 0 9V54C0 58.968 4.032 63 9 63H54C58.968 63 63 58.968 63 54Z" fill="#FF9900"/>
<path fill-rule="evenodd" clip-rule="evenodd" d="M81 27.0001H67.5V36.0001H81L81.0045 81.0001H36V67.5001H27V81.0001C27 85.9636 31.0365 90.0001 36 90.0001H81C85.9635 90.0001 90 85.9636 90 81.0001V36.0001C90 31.0411 85.9635 27.0001 81 27.0001Z" fill="#FF9900"/>
</svg>
