<svg width="208" height="50" viewBox="0 0 208 50" fill="none" xmlns="http://www.w3.org/2000/svg">
<path fill-rule="evenodd" clip-rule="evenodd" d="M134.533 45.4653H158.381C159.558 45.4653 160.147 44.8362 160.147 43.578C160.147 43.578 160.147 7.46585 160.147 6.3827C160.147 5.29955 159.597 4.53473 158.25 4.53473C156.903 4.53473 134.533 4.53473 134.533 4.53473V45.4653ZM129.98 2.99976e-07H159.283C162.911 2.99976e-07 164.726 1.81302 164.726 5.43906V44.4823C164.726 48.152 162.911 49.9913 159.283 50H129.98V2.99976e-07Z" fill="#FF9900"/>
<path fill-rule="evenodd" clip-rule="evenodd" d="M208 29.8034C208 33.5081 206.155 35.3604 202.466 35.3604H169.082V30.8257H201.681C202.885 30.8257 203.513 30.2752 203.513 29.1743V28.0734C203.513 26.8807 202.911 26.291 201.655 26.291H174.55C170.904 26.291 169.077 24.5959 169.069 21.2058V18.2438C169.069 14.5741 170.861 12.7392 174.445 12.7392H208V17.2739H175.426C173.987 17.2739 173.634 18.4231 173.634 19.0826C173.634 19.7421 173.634 19.9869 173.634 19.9869C173.634 21.2189 174.223 21.8349 175.387 21.8349H202.466C206.155 21.8349 208 23.6217 208 27.1953V29.8034Z" fill="#FF9900"/>
<path fill-rule="evenodd" clip-rule="evenodd" d="M139.203 8.92531L155.608 8.82046V23.578H139.203V8.92531Z" fill="white"/>
<path fill-rule="evenodd" clip-rule="evenodd" d="M139.085 28.0472L155.595 28.0078V32.5426H139.085V28.0472Z" fill="#FF9900"/>
<path fill-rule="evenodd" clip-rule="evenodd" d="M139.085 36.54L155.595 36.5007V41.0354H139.085V36.54Z" fill="#FF9900"/>
<path fill-rule="evenodd" clip-rule="evenodd" d="M125.637 35.3866H120.13L114.635 28.1127H91.206V35.3866H86.6405L86.6928 12.7654H120.195C123.78 12.7654 125.572 14.5478 125.572 18.1127V22.7654C125.572 26.3739 123.749 28.1782 120.104 28.1782L125.637 35.3866ZM91.206 17.2346V23.578H119.266C120.457 23.578 121.072 22.9358 121.072 21.6645V19.0432C121.046 17.8506 120.404 17.2346 119.057 17.2346H91.206Z" fill="#FF9900"/>
<path fill-rule="evenodd" clip-rule="evenodd" d="M82.3105 35.3866H77.758V28.0734H47.9447V35.3866H43.3922V18.3486C43.3922 14.6265 45.2193 12.7654 48.8735 12.7654H76.8554C80.4921 12.7654 82.3105 14.657 82.3105 18.4403V35.3866ZM47.9447 23.5911H77.758C77.758 23.5911 77.758 20.1463 77.758 19.0432C77.758 17.9402 77.0181 17.2477 75.9527 17.2477C75.9527 17.2477 50.7554 17.2477 49.7892 17.2477C48.823 17.2477 47.9839 17.9635 47.9839 19.1088L47.9447 23.5911Z" fill="#FF9900"/>
<path fill-rule="evenodd" clip-rule="evenodd" d="M38.9052 35.3866H5.33736C1.77912 35.3866 -9.98059e-08 33.5474 -9.98059e-08 29.8689V18.0734C-9.98059e-08 14.5347 1.77912 12.7654 5.33736 12.7654H38.9052V17.3001H6.35774C5.42163 17.3001 4.57862 17.6933 4.56553 19.0301V29.0432C4.56553 30.2621 5.14113 30.8781 6.27925 30.8781H38.9052V35.3866Z" fill="#FF9900"/>
</svg>
