<svg width="100" height="100" viewBox="0 0 100 100" fill="none" xmlns="http://www.w3.org/2000/svg">
<path d="M100 0H0V100H100V0Z" fill="#DB2B36"/>
<path d="M88.9725 19L77.6943 37.125C76.4412 39.125 76.6918 40.75 77.193 42.25L94.2356 85.75H23.6843C17.2933 85.75 12.4061 80.625 12.4061 74.625L12.2808 16.625C12.4061 9.12498 23.4336 8.99998 23.559 16.625V70.875C23.559 72.625 25.0627 74.5 27.0677 74.5H78.8221L65.4136 43.125C65.0377 41.875 64.787 40.75 64.787 39.5C64.787 38.125 65.4136 36 66.2908 34.25L78.5715 14C79.4487 12.125 81.3284 11 83.4587 10.875C86.4662 10.75 89.0978 12.875 89.2231 16.125C89.3484 16.875 89.2231 18.375 88.9725 19Z" fill="white"/>
<path d="M50.0001 55.625V16.75C50.0001 9.125 61.0276 9.125 61.1529 16.75V56C61.1529 65 54.386 70.875 46.1153 70.875C37.8447 70.875 31.0778 64.75 31.0778 56V16.75C31.0778 9.125 42.2306 9.125 42.2306 16.75V55.625C42.356 60.75 50.0001 61.125 50.0001 55.625Z" fill="white"/>
</svg>
