<svg width="100" height="100" viewBox="0 0 100 100" fill="none" xmlns="http://www.w3.org/2000/svg">
<path fill-rule="evenodd" clip-rule="evenodd" d="M0 0H100V100H0V0Z" fill="white"/>
<path d="M83.3904 20.1815C85.0215 22.615 86.4163 25.1987 87.5558 27.8975C87.5558 27.898 87.5568 27.8965 87.5578 27.897C88.7528 30.6809 89.6604 33.5795 90.2665 36.5478C90.874 39.5346 91.1789 42.5751 91.1764 45.623C91.1739 47.1385 91.0952 48.6528 90.9404 50.1604C90.783 51.704 90.5575 53.2399 90.2644 54.7636L90.1591 55.3146L76.6363 65.1088L74.4485 82.5054H51.118L50.2698 83.0709C49.6166 83.5774 48.8816 83.9685 48.0966 84.2273H48.0914C47.2971 84.4887 46.4629 84.6143 45.5882 84.6143C44.6954 84.6143 43.8622 84.4887 43.0684 84.2273H43.0627C42.3012 83.9772 41.5888 83.6011 40.9066 83.0932L39.9521 82.5054H16.8368L14.6143 65.1119L1.02098 55.3146L0.911515 54.7745C0.603691 53.2471 0.374087 51.705 0.223599 50.1541C0.0751808 48.6483 0.000558254 47.1361 -1.50406e-07 45.623C-1.50406e-07 42.5518 0.299342 39.5314 0.89647 36.5732C1.49955 33.6002 2.40021 30.6954 3.58484 27.9027C4.72383 25.1972 6.11862 22.6067 7.75021 20.1665C9.38637 17.7245 11.2576 15.4484 13.3371 13.3708C15.4038 11.3053 17.6653 9.4444 20.0902 7.81408C22.531 6.17351 25.1222 4.76871 27.829 3.61862C30.6802 2.40465 33.5782 1.49884 36.5301 0.899123C39.5117 0.296388 42.5463 -0.00481693 45.5882 5.84915e-05C48.6506 5.84915e-05 51.6773 0.301995 54.6634 0.909499C57.6423 1.51716 60.552 2.42482 63.348 3.61862C66.0444 4.76352 68.625 6.1639 71.0546 7.80059C73.4701 9.43012 75.7237 11.2879 77.8051 13.3708C77.8072 13.3719 77.8041 13.375 77.8051 13.376C79.8784 15.4623 81.7486 17.7411 83.3904 20.1815Z" transform="translate(4.41187 7.69312)" fill="white"/>
<path fill-rule="evenodd" clip-rule="evenodd" d="M84.8404 27.0337C82.5961 21.729 79.4336 17.036 75.3875 12.9558C71.3404 8.90919 66.648 5.74664 61.3771 3.50236C55.8691 1.15638 50.1219 7.91611e-09 44.1714 7.91611e-09C38.1866 7.91611e-09 32.4742 1.15638 26.9652 3.50236C21.6943 5.74664 16.9676 8.90919 12.9215 12.9558C8.84123 17.036 5.7124 21.729 3.46812 27.0337C1.15587 32.5085 -1.78113e-07 38.2551 -1.78113e-07 44.2061C-1.78113e-07 47.1306 0.271846 50.0545 0.884019 53.0811L14.5194 62.9075L16.6615 79.6717H38.9342L40.2602 80.4872C41.4166 81.3718 42.6747 81.779 44.1709 81.779C45.6333 81.779 46.9256 81.3718 48.0473 80.4872L49.2711 79.6717H71.7825L73.8908 62.9075L87.4582 53.0811C88.0367 50.0545 88.3428 47.1301 88.3428 44.2061C88.3428 38.2551 87.1869 32.5085 84.8404 27.0337Z" transform="translate(5.82861 9.10938)" fill="#CC2229"/>
<path fill-rule="evenodd" clip-rule="evenodd" d="M70.5929 23.8716C69.7083 20.1312 67.8044 16.9344 64.8457 14.3503L44.1377 50.0207L62.4655 10.9159C60.0173 7.68536 56.9227 5.47532 53.0126 4.21673L40.3287 48.5583L49.6125 2.41445C46.7218 0.816057 43.6614 -2.37483e-07 40.3967 -2.37483e-07L38.3225 0.135923L36.4865 48.1495L34.5483 0.135923L32.5079 -2.37483e-07C29.2437 -2.37483e-07 26.1491 0.816057 23.2927 2.41445L32.4737 48.5583L19.8925 4.21725C15.9819 5.47584 12.8198 7.68588 10.4396 10.9164L28.8697 50.0213L8.05889 14.3508C5.10075 16.9349 3.19627 20.1317 2.31225 23.8722L25.5032 52.3672L1.63212 28.3939C0.543693 30.8426 1.66238e-07 33.393 1.66238e-07 36.0113C1.66238e-07 37.4733 0.170164 39.0369 0.577933 40.7038L13.9757 50.497L15.7443 63.6561H32.0322L34.3445 65.4242C34.9909 65.8662 35.671 66.0706 36.4528 66.1043C37.2009 66.0711 37.9153 65.8662 38.4932 65.4242L40.9414 63.6561H57.2973L58.9642 50.497L72.3272 40.7038C72.7012 39.0369 72.9056 37.4733 72.9056 36.0113C72.9056 33.393 72.3272 30.8426 71.2735 28.3939L47.5389 52.3662L70.5929 23.8716Z" transform="translate(13.5479 17.3043)" fill="#F6D330"/>
</svg>
