<svg width="110" height="89" viewBox="0 0 110 89" fill="none" xmlns="http://www.w3.org/2000/svg">
<path fill-rule="evenodd" clip-rule="evenodd" d="M35 7.41667C35 3.31772 31.64 0 27.5 0C23.36 0 20 3.31772 20 7.41667V9.88889H35V7.41667Z" fill="#FF9900"/>
<path fill-rule="evenodd" clip-rule="evenodd" d="M35 59.3333V14.8333H20V59.3333L27.5 74.1666L35 59.3333Z" fill="#FF9900"/>
<path fill-rule="evenodd" clip-rule="evenodd" d="M100 59.3335H80V49.4446H100V59.3335ZM100 19.7777H45V29.6666H70V79.111H10V19.7777C4.48 19.7777 0 24.2079 0 29.6666V79.111C0 84.5697 4.48 88.9999 10 88.9999H100C105.52 88.9999 110 84.5697 110 79.111V29.6666C110 24.2079 105.52 19.7777 100 19.7777Z" fill="#FF9900"/>
</svg>
