<svg width="100" height="100" viewBox="0 0 100 100" fill="none" xmlns="http://www.w3.org/2000/svg">
<rect width="100" height="100" fill="white"/>
<path fill-rule="evenodd" clip-rule="evenodd" d="M21 33.2614H28.2344V57.8112L21 51.4228V33.2614ZM29.6538 25.1746H36.6008V65.7586L29.6538 59.0816V25.1746ZM38.0212 17.0887H45.1114V55.5388H38.0212V17.0887ZM46.5241 9H53.8968V47.5943H46.5241V9ZM54.8905 16.6579H61.9827V55.5388H54.8905V16.6579ZM63.6846 25.0264H70.6316V58.9412L63.6846 65.7586V25.0264ZM71.904 33.119H79V50.8573L71.904 57.8112V33.119Z" fill="black"/>
<path fill-rule="evenodd" clip-rule="evenodd" d="M38.0211 56.3965H45.1114V91.9999H38.0211V56.3965ZM46.524 48.7347H53.4691V91.9999H46.524V48.7347ZM54.8904 56.532H61.9826V91.9999H54.8904V56.532Z" fill="#FFD600"/>
</svg>
