<svg width="100" height="100" viewBox="0 0 100 100" fill="none" xmlns="http://www.w3.org/2000/svg">
<path fill-rule="evenodd" clip-rule="evenodd" d="M0 0H100V100H0V0Z" fill="white"/>
<path d="M87.8021 27.8746C89.4332 30.3081 90.828 32.8918 91.9675 35.5906C91.9675 35.5911 91.9686 35.5896 91.9696 35.5901C93.1646 38.374 94.0721 41.2726 94.6782 44.2409C95.2858 47.2277 95.5906 50.2682 95.5882 53.3161C95.5857 54.8316 95.5069 56.346 95.3521 57.8535C95.1948 59.3971 94.9692 60.933 94.6761 62.4567L94.5708 63.0077L81.048 72.8019L78.8603 90.1985H55.5297L54.6815 90.764C54.0283 91.2705 53.2933 91.6616 52.5083 91.9204H52.5031C51.7088 92.1819 50.8746 92.3074 50 92.3074C49.1071 92.3074 48.2739 92.1819 47.4802 91.9204H47.4745C46.7129 91.6703 46.0006 91.2942 45.3184 90.7863L44.3638 90.1985H21.2486L19.0261 72.805L5.43272 63.0077L5.32326 62.4676C5.01543 60.9402 4.78583 59.3981 4.63534 57.8473C4.48692 56.3414 4.4123 54.8293 4.41174 53.3161C4.41174 50.2449 4.71109 47.2245 5.30821 44.2664C5.91129 41.2933 6.81195 38.3885 7.99659 35.5958C9.13558 32.8903 10.5304 30.2998 12.162 27.8596C13.7981 25.4176 15.6693 23.1415 17.7488 21.064C19.8155 18.9984 22.0771 17.1375 24.5019 15.5072C26.9427 13.8666 29.534 12.4618 32.2407 11.3117C35.092 10.0978 37.9899 9.19196 40.9419 8.59224C43.9234 7.9895 46.9581 7.6883 50 7.69317C53.0624 7.69317 56.089 7.99511 59.0752 8.60261C62.054 9.21027 64.9637 10.1179 67.7597 11.3117C70.4561 12.4566 73.0368 13.857 75.4663 15.4937C77.8818 17.1232 80.1355 18.981 82.2169 21.064C82.2189 21.065 82.2158 21.0681 82.2169 21.0692C84.2902 23.1554 86.1604 25.4342 87.8021 27.8746Z" fill="white"/>
<path fill-rule="evenodd" clip-rule="evenodd" d="M90.6691 36.143C88.4248 30.8384 85.2623 26.1454 81.2162 22.0651C77.1691 18.0186 72.4767 14.856 67.2058 12.6117C61.6978 10.2658 55.9506 9.10938 50.0001 9.10938C44.0153 9.10938 38.3029 10.2658 32.7939 12.6117C27.5229 14.856 22.7962 18.0186 18.7502 22.0651C14.6699 26.1454 11.5411 30.8384 9.29679 36.143C6.98454 41.6178 5.82867 47.3645 5.82867 53.3155C5.82867 56.2399 6.10052 59.1638 6.71269 62.1905L20.3481 72.0169L22.4902 88.7811H44.7629L46.0889 89.5966C47.2453 90.4812 48.5033 90.8884 49.9995 90.8884C51.462 90.8884 52.7543 90.4812 53.8759 89.5966L55.0998 88.7811H77.6111L79.7195 72.0169L93.2869 62.1905C93.8654 59.1638 94.1714 56.2394 94.1714 53.3155C94.1714 47.3645 93.0156 41.6178 90.6691 36.143Z" fill="#CC2229"/>
<path fill-rule="evenodd" clip-rule="evenodd" d="M84.1406 41.176C83.2561 37.4355 81.3521 34.2387 78.3934 31.6546L57.6854 67.3251L76.0132 28.2202C73.5651 24.9897 70.4705 22.7796 66.5603 21.5211L53.8764 65.8626L63.1602 19.7188C60.2695 18.1204 57.2091 17.3043 53.9444 17.3043L51.8703 17.4402L50.0343 65.4538L48.0961 17.4402L46.0557 17.3043C42.7914 17.3043 39.6969 18.1204 36.8404 19.7188L46.0214 65.8626L33.4402 21.5216C29.5296 22.7802 26.3676 24.9902 23.9874 28.2207L42.4174 67.3256L21.6066 31.6551C18.6485 34.2392 16.744 37.436 15.86 41.1765L39.051 69.6716L15.1798 45.6982C14.0914 48.1469 13.5477 50.6973 13.5477 53.3156C13.5477 54.7776 13.7179 56.3412 14.1257 58.0081L27.5234 67.8013L29.292 80.9604H45.5799L47.8922 82.7285C48.5386 83.1705 49.2187 83.3749 50.0005 83.4086C50.7486 83.3754 51.463 83.1705 52.041 82.7285L54.4891 80.9604H70.845L72.5119 67.8013L85.8749 58.0081C86.249 56.3412 86.4534 54.7776 86.4534 53.3156C86.4534 50.6973 85.8749 48.1469 84.8213 45.6982L61.0866 69.6705L84.1406 41.176Z" fill="#F6D330"/>
</svg>
